<svg xmlns="http://www.w3.org/2000/svg" width="1200" height="630" viewBox="0 0 1200 630">
  <!-- Background -->
  <defs>
    <linearGradient id="bg" x1="0%" y1="0%" x2="100%" y2="100%">
      <stop offset="0%" style="stop-color:#0f172a"/>
      <stop offset="100%" style="stop-color:#1e293b"/>
    </linearGradient>
    <linearGradient id="accent" x1="0%" y1="0%" x2="100%" y2="0%">
      <stop offset="0%" style="stop-color:#10b981"/>
      <stop offset="100%" style="stop-color:#34d399"/>
    </linearGradient>
  </defs>

  <rect width="1200" height="630" fill="url(#bg)"/>

  <!-- Top accent bar -->
  <rect x="0" y="0" width="1200" height="4" fill="url(#accent)"/>

  <!-- Subtle grid pattern -->
  <pattern id="grid" width="60" height="60" patternUnits="userSpaceOnUse">
    <path d="M 60 0 L 0 0 0 60" fill="none" stroke="#ffffff08" stroke-width="1"/>
  </pattern>
  <rect width="1200" height="630" fill="url(#grid)"/>

  <!-- Logo mark — emerald diamond -->
  <g transform="translate(120, 200)">
    <rect x="0" y="0" width="56" height="56" rx="14" fill="#10b981" opacity="0.15"/>
    <rect x="8" y="8" width="40" height="40" rx="10" fill="#10b981" opacity="0.25"/>
    <text x="28" y="38" font-family="Arial, sans-serif" font-size="28" font-weight="700" fill="#10b981" text-anchor="middle">S</text>
  </g>

  <!-- Main heading -->
  <text x="120" y="320" font-family="Arial, sans-serif" font-size="64" font-weight="700" fill="#f8fafc" letter-spacing="-1">Swigs Pro</text>

  <!-- Subtitle -->
  <text x="120" y="390" font-family="Arial, sans-serif" font-size="28" font-weight="400" fill="#94a3b8">Projets, heures &amp; factures tout-en-un</text>

  <!-- Divider -->
  <rect x="120" y="420" width="80" height="3" rx="2" fill="url(#accent)"/>

  <!-- Feature pills -->
  <g transform="translate(120, 460)">
    <!-- Pill 1 -->
    <rect x="0" y="0" width="170" height="36" rx="18" fill="#10b98120"/>
    <text x="85" y="23" font-family="Arial, sans-serif" font-size="15" font-weight="500" fill="#10b981" text-anchor="middle">Gestion de projets</text>

    <!-- Pill 2 -->
    <rect x="186" y="0" width="160" height="36" rx="18" fill="#10b98120"/>
    <text x="266" y="23" font-family="Arial, sans-serif" font-size="15" font-weight="500" fill="#10b981" text-anchor="middle">Suivi des heures</text>

    <!-- Pill 3 -->
    <rect x="362" y="0" width="130" height="36" rx="18" fill="#10b98120"/>
    <text x="427" y="23" font-family="Arial, sans-serif" font-size="15" font-weight="500" fill="#10b981" text-anchor="middle">Facturation</text>

    <!-- Pill 4 -->
    <rect x="508" y="0" width="160" height="36" rx="18" fill="#10b98120"/>
    <text x="588" y="23" font-family="Arial, sans-serif" font-size="15" font-weight="500" fill="#10b981" text-anchor="middle">QR-factures CH</text>
  </g>

  <!-- Domain badge -->
  <text x="1080" y="580" font-family="Arial, sans-serif" font-size="18" font-weight="400" fill="#475569" text-anchor="end">workflow.swigs.online</text>
</svg>
