<?xml version="1.0" encoding="UTF-8"?><svg xmlns="http://www.w3.org/2000/svg" viewBox="0 0 649.13 459.21"><defs><style>.d{fill:none;}.e{fill:#e30613;}.f{fill:#2e2d2c;}</style></defs><g id="a"/><g id="b"><g id="c"><g><g><g><path class="f" d="M140.6,282.51c.86,6.87,7.25,10.2,13.45,10.2s11.35-3.24,11.35-8.58c0-4.58-3.05-7.82-9.35-9.92l-8.39-2.77c-10.59-3.43-16.5-9.63-16.6-19.55,0-11.73,8.97-18.79,21.56-18.79,14.12,0,21.84,9.92,22.51,19.36h-11.06c-1.72-6.39-6.68-8.97-11.54-8.97-5.72,0-10.21,2.96-10.21,7.82-.09,4.96,3.05,7.63,9.16,9.63l8.3,2.67c10.59,3.43,16.88,9.83,16.88,20.13,0,11.45-9.25,19.36-22.61,19.36-15.07,0-24.23-9.92-24.61-20.6h11.16Z"/><path class="f" d="M230.27,260.57l-15.74,41.4h-10.3l-17.46-67.72h11.73l12.4,49.22,19.36-50.36,19.36,50.36,12.4-49.22h11.83l-17.55,67.72h-10.3l-15.74-41.4Z"/><path class="f" d="M288.76,234.25h11.16v67.72h-11.16v-67.72Z"/><path class="f" d="M352.29,233.1c15.17,0,27.85,9.25,32.05,21.18h-12.68c-3.53-6.2-10.87-10.4-19.36-10.4-14.12,0-24.04,10.59-24.04,24.23s9.92,24.23,24.13,24.23c12.59,0,20.79-7.92,22.22-19.46h-23.18v-10.49h34.62c2.48,26.23-13.73,40.73-33.67,40.73s-35.39-15.26-35.39-35.01,15.17-35.01,35.29-35.01Z"/><path class="f" d="M410.1,282.51c.86,6.87,7.25,10.2,13.45,10.2s11.35-3.24,11.35-8.58c0-4.58-3.05-7.82-9.35-9.92l-8.39-2.77c-10.58-3.43-16.5-9.63-16.59-19.55,0-11.73,8.96-18.79,21.55-18.79,14.12,0,21.84,9.92,22.51,19.36h-11.06c-1.72-6.39-6.68-8.97-11.54-8.97-5.72,0-10.2,2.96-10.2,7.82-.1,4.96,3.05,7.63,9.16,9.63l8.3,2.67c10.58,3.43,16.88,9.83,16.88,20.13,0,11.45-9.25,19.36-22.61,19.36-15.07,0-24.23-9.92-24.61-20.6h11.16Z"/></g><g><path class="e" d="M474.89,156.1c-11.32,3.48-20.24,12.4-23.72,23.72h23.72v-23.72Z"/><path class="e" d="M519.69,179.82c-3.48-11.32-12.4-20.24-23.72-23.72v23.72h23.72Z"/><path class="e" d="M451.17,200.9c3.48,11.32,12.4,20.24,23.72,23.72v-23.72h-23.72Z"/><path class="e" d="M495.97,224.63c11.32-3.48,20.24-12.4,23.72-23.72h-23.72v23.72Z"/></g></g><rect class="d" width="649.13" height="459.21"/></g></g></g></svg>